<svg xmlns="http://www.w3.org/2000/svg" viewBox="0 0 108.65 64.04"><defs><style>.a{font-size:51.99px;fill:#fff;font-family:Univers LT Std;}.b{letter-spacing:2px;}.c{fill:#b48dc0;}</style></defs><title>statistics_downArrow10k</title><text class="a" transform="translate(46.63 47.87)">1<tspan class="b" x="19.34" y="0">0</tspan><tspan x="40.76" y="0">K</tspan></text><path class="c" d="M35.73,40.76V1a1,1,0,0,0-1-1H7.95A1,1,0,0,0,7,1v39.8a1,1,0,0,1-1,1H1a1,1,0,0,0-.68,1.64l20.4,20.4a1,1,0,0,0,1.36,0l20.4-20.4a1,1,0,0,0-.68-1.64H36.69A1,1,0,0,1,35.73,40.76Z"/></svg>