<svg xmlns="http://www.w3.org/2000/svg" viewBox="0 0 123.26 78.39"><defs><style>.a{font-size:51.99px;fill:#fff;font-family:Univers LT Std;letter-spacing:1px;}.b{letter-spacing:2px;}.c{fill:#b48dc0;}</style></defs><title>statistics_640k</title><text class="a" transform="translate(38.88 64.13)">64<tspan class="b" x="40.76" y="0">0</tspan><tspan x="62.18" y="0">K</tspan></text><path class="c" d="M22.84,14.41H8a8,8,0,0,0-8,8V23H0V42.76a2.82,2.82,0,1,0,5.64,0V24.38H7V74.59a3.8,3.8,0,0,0,7.59,0V45.45h1.57V74.59a3.8,3.8,0,0,0,7.59,0V41.74h0V24.38h1.43V42.76a2.82,2.82,0,1,0,5.64,0V22.42A8,8,0,0,0,22.84,14.41Z"/><circle class="c" cx="15.31" cy="6.3" r="6.3"/></svg>