<svg xmlns="http://www.w3.org/2000/svg" viewBox="0 0 123.6 123.6"><defs><style>.a{font-size:51.99px;}.a,.c,.d{fill:#fff;}.a,.c{font-family:Univers LT Std;}.b{letter-spacing:2px;}.c{font-size:38.53px;}.e{fill:#b48dc0;}</style></defs><title>statistics_30percent</title><text class="a" transform="translate(28.45 81.81)"><tspan class="b">3</tspan><tspan x="21.42" y="0">0</tspan></text><text class="c" transform="translate(71.66 71.33)">%</text><path class="d" d="M60.38,123.6a60.38,60.38,0,1,1,60.38-60.38A60.45,60.45,0,0,1,60.38,123.6Zm0-110.9A50.52,50.52,0,1,0,110.9,63.22,50.57,50.57,0,0,0,60.38,12.7Z"/><path class="e" d="M60.38,0H57.55V15.54h2.84a47.7,47.7,0,0,1,41.38,71.39l-1.41,2.46,13.47,7.74,1.41-2.46A63.23,63.23,0,0,0,60.38,0Z"/></svg>