<svg xmlns="http://www.w3.org/2000/svg" viewBox="0 0 123.6 123.6"><defs><style>.a{fill:#fff;}.b{fill:#b48dc0;}</style></defs><title>statistics_30percent</title><path class="a" d="M30.37,71.67h4.89v2c0,3,.73,4.68,2.86,4.68S41,76.66,41,73.7V69.28c0-3.43-.88-4.52-4.42-4.52h-1.3V60.39h1.66c3.12,0,3.9-.83,3.9-4.52V51.71c0-3.22-1-4-2.44-4-2.13,0-2.86,1.72-2.86,4.68v1.25H30.63c0-7.17,1.56-9.67,7.75-9.67s7.33,2.86,7.33,10c0,6.5-.83,7.8-4.58,8.47v0.1c3.22,0.52,4.73,1.35,4.73,10.35,0,6.76-1.56,9.25-7.75,9.25s-7.75-2.5-7.75-9.25v-1.2Z"/><path class="a" d="M51.79,53.21c0-6.76,1.56-9.25,7.75-9.25s7.75,2.5,7.75,9.25V72.87c0,6.76-1.56,9.25-7.75,9.25s-7.75-2.5-7.75-9.25V53.21ZM56.68,73.7c0,2.34,0,4.68,2.86,4.68S62.4,76,62.4,73.7V52.38c0-2.34,0-4.68-2.86-4.68S56.68,50,56.68,52.38V73.7Z"/><path class="a" d="M73.06,47.77c0-2.18,1.59-3.07,3.69-3.07s3.69,0.89,3.69,3.07V59.56c0,2.18-1.59,3.07-3.69,3.07s-3.69-.89-3.69-3.07V47.77ZM75.62,59c0,1.09.35,1.56,1.13,1.56s1.13-.47,1.13-1.56V48.36c0-1.09-.35-1.56-1.13-1.56s-1.13.47-1.13,1.56V59ZM86.74,44.7h2.33L80.25,73.24H77.92ZM86.63,58.39c0-2.18,1.59-3.07,3.69-3.07S94,56.21,94,58.39V70.17c0,2.18-1.59,3.07-3.69,3.07s-3.69-.89-3.69-3.07V58.39Zm2.57,11.2c0,1.09.35,1.55,1.13,1.55s1.13-.47,1.13-1.55V59c0-1.09-.35-1.56-1.13-1.56s-1.13.47-1.13,1.56V69.59Z"/><path class="a" d="M60.38,123.6a60.38,60.38,0,1,1,60.38-60.38A60.45,60.45,0,0,1,60.38,123.6Zm0-110.9A50.52,50.52,0,1,0,110.9,63.22,50.57,50.57,0,0,0,60.38,12.7Z"/><path class="b" d="M60.38,0H57.55V15.54h2.84a47.7,47.7,0,0,1,41.38,71.39l-1.41,2.46,13.47,7.74,1.41-2.46A63.23,63.23,0,0,0,60.38,0Z"/></svg>