<svg xmlns="http://www.w3.org/2000/svg" viewBox="0 0 122.32 78.39"><defs><style>.a{fill:#fff;}.b{fill:#b48dc0;}</style></defs><title>statistics_640k</title><path class="a" d="M56.14,36.21H51.25V34.4c0-3-.73-4.06-2.81-4.06S45.53,32.06,45.53,35v6.91h0.1c1.2-1.61,2.65-2.18,4.89-2.18,4.83,0,5.93,3.69,5.93,9v6.39c0,6.76-1.56,9.25-8.32,9.25-5.46,0-7.49-2-7.49-8.63V35.54c0-6.76,2.18-9.25,7.8-9.25s7.69,2.5,7.69,6.6v3.33ZM51.25,47.29c0-2-.52-3.48-2.81-3.48-2,0-2.91,1.4-2.91,4.73V56c0,2.5,0,4.68,2.91,4.68s2.81-1.77,2.81-4.68V47.29Z"/><path class="a" d="M60.4,50.72L68.72,26.6h6.45V51.24h2.29V55H75.17v9.15H70.28V55H60.4V50.72Zm9.88-16.84h-0.1L64.77,51.24h5.51V33.88Z"/><path class="a" d="M81.56,35.54c0-6.76,1.56-9.25,7.75-9.25s7.75,2.5,7.75,9.25V55.19c0,6.76-1.56,9.25-7.75,9.25s-7.75-2.5-7.75-9.25V35.54ZM86.45,56c0,2.34,0,4.68,2.86,4.68s2.86-2.34,2.86-4.68V34.71c0-2.34,0-4.68-2.86-4.68s-2.86,2.34-2.86,4.68V56Z"/><path class="a" d="M103,26.6h5.2V43.7h0.1l8.21-17.1h5.2L113,44.22l9.36,19.91H116.5l-8.21-18.77h-0.1V64.13H103V26.6Z"/><path class="b" d="M22.84,14.41H8a8,8,0,0,0-8,8V23H0V42.76a2.82,2.82,0,1,0,5.64,0V24.38H7V74.59a3.8,3.8,0,0,0,7.59,0V45.45h1.57V74.59a3.8,3.8,0,0,0,7.59,0V41.74h0V24.38h1.43V42.76a2.82,2.82,0,1,0,5.64,0V22.42A8,8,0,0,0,22.84,14.41Z"/><circle class="b" cx="15.31" cy="6.3" r="6.3"/></svg>
