<svg xmlns="http://www.w3.org/2000/svg" viewBox="0 0 108.65 64.04"><defs><style>.a{fill:#fff;}.b{fill:#b48dc0;}</style></defs><title>statistics_downArrow10k</title><path class="a" d="M54.94,17.4h-0.1a18.31,18.31,0,0,1-4.05,3.9V16.41a22.27,22.27,0,0,0,4.68-6.08h4.37V47.87H54.94V17.4Z"/><path class="a" d="M67.89,19.27c0-6.76,1.56-9.25,7.75-9.25s7.75,2.5,7.75,9.25V38.92c0,6.76-1.56,9.25-7.75,9.25s-7.75-2.5-7.75-9.25V19.27Zm4.89,20.48c0,2.34,0,4.68,2.86,4.68s2.86-2.34,2.86-4.68V18.44c0-2.34,0-4.68-2.86-4.68s-2.86,2.34-2.86,4.68V39.76Z"/><path class="a" d="M89.31,10.33h5.2v17.1h0.1l8.21-17.1H108L99.29,28l9.36,19.91h-5.82L94.62,29.1h-0.1V47.87h-5.2V10.33Z"/><path class="b" d="M35.73,40.76V1a1,1,0,0,0-1-1H7.95A1,1,0,0,0,7,1v39.8a1,1,0,0,1-1,1H1a1,1,0,0,0-.68,1.64l20.4,20.4a1,1,0,0,0,1.36,0l20.4-20.4a1,1,0,0,0-.68-1.64H36.69A1,1,0,0,1,35.73,40.76Z"/></svg>